<svg version="1.2" xmlns="http://www.w3.org/2000/svg" viewBox="0 0 235 76" width="1000" height="323"><style>.a{fill:#fff}</style><path class="a" d="m5.4 74.7q-2 0-3.7-1.5-1.6-1.7-1.6-3.8v-53.6q0-4.5 2.8-6.8 3-2.4 6.3-2.4h15.4q5.4 0 9.9 2.5 4.7 2.4 7.6 6.8 2.8 4.4 2.8 10.5 0 5.8-3.3 11.1-3.1 5.1-8.2 7 2.2 1 4.1 3.3 2.1 2.1 3.6 5.8l5.7 13.4q0.5 1 0.5 2.2 0 3-1.9 4.3-1.7 1.3-3.6 1.3-3.2 0-4.4-3.1l-6.5-16q-2-4.8-5.2-6.6-3.1-1.8-6.9-1.8h-3.9q-4.1 0-4.1 5v17.1q0 2.1-1.6 3.8-1.6 1.5-3.8 1.5zm8.8-37.4h8.8q4 0 7.6-2.6 3.8-2.8 3.8-8 0-5-3.5-7.4-3.3-2.5-7.2-2.5h-9q-3.9 0-3.9 4.1v12.6q0 3.8 3.4 3.8zm48 37.4q-2 0-3.8-1.4-1.5-1.3-1.5-3.8v-39.8q0-2.8 1.5-4.1 1.8-1.5 3.8-1.5 2.1 0 3.6 1.5 1.8 1.3 1.8 4.1v39.8q0 2.5-1.8 3.8-1.5 1.4-3.6 1.4zm0.2-59.8q-3 0-5.2-1.9-2.1-2.2-2.1-5.2 0-2.8 2.1-4.8 2.2-2.2 5.2-2.2 2.8 0 4.8 2.2 2.1 2 2.1 4.8 0 3-2.1 5.2-2 1.9-4.8 1.9zm35.7 59.8q-6.2 0-10.1-4-3.9-4-3.9-12v-21q0-1.7-1.6-1.7h-2.8q-2.1 0-3.5-1.3-1.4-1.5-1.4-3.7 0-2.3 1.4-3.8 1.4-1.5 3.5-1.5h2.8q1.6 0 1.6-1.6v-14q0-2.3 1.4-3.6 1.6-1.5 3.8-1.5 2.3 0 3.7 1.5 1.6 1.3 1.6 3.6v14q0 1.6 1.6 1.6h8.5q1.9 0 3.3 1.5 1.4 1.5 1.4 3.8 0 2.2-1.4 3.7-1.3 1.3-3.5 1.3h-8.3q-1.6 0-1.6 1.7v19.5q0 7 5.4 7 1.5 0 3.3-0.5 1.7-0.5 2.3-0.5 2.2 0 3.3 1.5 1.3 1.5 1.3 3.5 0 1.5-0.8 3-0.8 1.3-2.5 2-1.7 0.6-4.4 1.1-2.5 0.4-4.4 0.4zm25.5 0q-2.1 0-3.8-1.4-1.6-1.3-1.6-3.8v-39.8q0-2.8 1.6-4.1 1.7-1.5 3.8-1.5 2 0 3.6 1.5 1.7 1.3 1.7 4.1v39.8q0 2.5-1.7 3.8-1.6 1.4-3.6 1.4zm0.1-59.8q-3 0-5.2-1.9-2-2.2-2-5.2 0-2.8 2-4.8 2.2-2.2 5.2-2.2 2.8 0 4.9 2.2 2 2 2 4.8 0 3-2 5.2-2.1 1.9-4.9 1.9zm23.3 59.8q-2 0-3.8-1.4-1.6-1.3-1.6-3.8v-63q0-2.8 1.6-4.2 1.8-1.5 3.8-1.5 2 0 3.6 1.5 1.7 1.4 1.7 4.2v32.3q0 1.7 0.5 1.7 0.5 0 1.3-0.7l19.5-14.7q1.7-1 3.1-1 2.2 0 3.6 1.6 1.5 1.5 1.5 3.3 0 2.9-2.6 4.5l-16 10.6q-1.4 1-1.4 2 0 1 1.1 2.2l17.1 17.1q1.8 2.1 1.8 4 0 2.1-1.6 3.8-1.6 1.5-3.6 1.5-2.1 0-3.8-1.9l-18.4-19.2q-1.1-1.2-1.4-1.2-0.7 0-0.7 2v15.1q0 2.5-1.7 3.8-1.6 1.4-3.6 1.4zm62.9 0q-6.7 0-12.1-3.4-5.3-3.3-8.3-9.1-3-6-3-13.3 0-7.1 3-12.7 3-5.7 8.3-8.8 5.4-3.3 12.1-3.3 4.4 0 7.9 1.6 3.4 1.5 6 4 0.3-2.3 1.8-3.5 1.6-1.3 3.5-1.3 2.1 0 3.6 1.5 1.8 1.3 1.8 4.1v39q0 2.5-1.8 3.8-1.5 1.4-3.6 1.4-2 0-3.8-1.4-1.5-1.3-1.5-3.8v-0.6q-2.6 2.6-6 4.3-3.5 1.5-7.9 1.5zm1-10.3q5.9 0 9.4-4.2 3.5-4.3 3.5-11.3 0-6.6-3.5-10.6-3.5-4-9.4-4-6.2 0-9.9 4-3.8 4-3.8 10.6 0 7 3.8 11.3 3.7 4.2 9.9 4.2z"/></svg>